<mxfile host="65bd71144e">
    <diagram id="jtDUzQ1pqoce6ORhRkvu" name="Page-1">
        <mxGraphModel dx="779" dy="550" grid="1" gridSize="10" guides="1" tooltips="1" connect="1" arrows="1" fold="1" page="0" pageScale="1" pageWidth="1100" pageHeight="850" background="none" math="0" shadow="0">
            <root>
                <mxCell id="0"/>
                <mxCell id="1" parent="0"/>
                <mxCell id="139" value="ViewModel" style="rounded=0;whiteSpace=wrap;html=1;" parent="1" vertex="1">
                    <mxGeometry x="440" y="260" width="80" height="244" as="geometry"/>
                </mxCell>
                <mxCell id="140" value="Use Cases" style="rounded=0;whiteSpace=wrap;html=1;" parent="1" vertex="1">
                    <mxGeometry x="640" y="260" width="80" height="130" as="geometry"/>
                </mxCell>
                <mxCell id="188" style="edgeStyle=none;html=1;entryX=1.027;entryY=0.8;entryDx=0;entryDy=0;entryPerimeter=0;exitX=0;exitY=0.836;exitDx=0;exitDy=0;exitPerimeter=0;" parent="1" source="243" edge="1">
                    <mxGeometry relative="1" as="geometry">
                        <mxPoint x="522.1600000000001" y="464" as="targetPoint"/>
                        <mxPoint x="830" y="464" as="sourcePoint"/>
                    </mxGeometry>
                </mxCell>
                <mxCell id="196" value="Core State" style="edgeLabel;html=1;align=center;verticalAlign=middle;resizable=0;points=[];fontSize=12;" parent="188" vertex="1" connectable="0">
                    <mxGeometry x="0.1433" y="1" relative="1" as="geometry">
                        <mxPoint x="22" y="-1" as="offset"/>
                    </mxGeometry>
                </mxCell>
                <mxCell id="183" value="" style="endArrow=classic;html=1;entryX=0;entryY=0.5;entryDx=0;entryDy=0;exitX=1;exitY=0.164;exitDx=0;exitDy=0;exitPerimeter=0;" parent="1" edge="1">
                    <mxGeometry width="50" height="50" relative="1" as="geometry">
                        <mxPoint x="520" y="299.83600000000007" as="sourcePoint"/>
                        <mxPoint x="640" y="299.82" as="targetPoint"/>
                    </mxGeometry>
                </mxCell>
                <mxCell id="194" value="Execute" style="edgeLabel;html=1;align=center;verticalAlign=middle;resizable=0;points=[];fontSize=12;" parent="183" vertex="1" connectable="0">
                    <mxGeometry x="-0.1409" relative="1" as="geometry">
                        <mxPoint x="8" as="offset"/>
                    </mxGeometry>
                </mxCell>
                <mxCell id="199" value="" style="whiteSpace=wrap;html=1;aspect=fixed;" parent="1" vertex="1">
                    <mxGeometry x="840" y="575" width="20" height="20" as="geometry"/>
                </mxCell>
                <mxCell id="200" value="Core" style="text;html=1;strokeColor=none;fillColor=none;align=left;verticalAlign=middle;whiteSpace=wrap;rounded=0;dashed=1;dashPattern=1 1;" parent="1" vertex="1">
                    <mxGeometry x="870" y="570" width="50" height="30" as="geometry"/>
                </mxCell>
                <mxCell id="201" value="" style="whiteSpace=wrap;html=1;aspect=fixed;" parent="1" vertex="1">
                    <mxGeometry x="840" y="605" width="20" height="20" as="geometry"/>
                </mxCell>
                <mxCell id="202" value="Platform" style="text;html=1;strokeColor=none;fillColor=none;align=left;verticalAlign=middle;whiteSpace=wrap;rounded=0;dashed=1;dashPattern=1 1;" parent="1" vertex="1">
                    <mxGeometry x="870" y="600" width="50" height="30" as="geometry"/>
                </mxCell>
                <mxCell id="205" value="Layers" style="text;html=1;strokeColor=none;fillColor=none;align=left;verticalAlign=middle;whiteSpace=wrap;rounded=0;fontSize=14;" parent="1" vertex="1">
                    <mxGeometry x="837" y="540" width="80" height="20" as="geometry"/>
                </mxCell>
                <mxCell id="211" value="Unidirection Data Flow (UDF)" style="text;html=1;strokeColor=none;fillColor=none;align=center;verticalAlign=middle;whiteSpace=wrap;rounded=0;fontSize=14;" parent="1" vertex="1">
                    <mxGeometry x="400" y="200" width="260" height="21" as="geometry"/>
                </mxCell>
                <mxCell id="217" style="edgeStyle=none;html=1;exitX=-0.018;exitY=0.799;exitDx=0;exitDy=0;exitPerimeter=0;entryX=1.016;entryY=0.861;entryDx=0;entryDy=0;entryPerimeter=0;" parent="1" source="219" target="222" edge="1">
                    <mxGeometry relative="1" as="geometry">
                        <mxPoint x="152.44444444444434" y="350" as="targetPoint"/>
                        <mxPoint x="230" y="420" as="sourcePoint"/>
                    </mxGeometry>
                </mxCell>
                <mxCell id="218" value="UI" style="edgeLabel;html=1;align=center;verticalAlign=middle;resizable=0;points=[];fontSize=12;" parent="217" vertex="1" connectable="0">
                    <mxGeometry x="0.2163" y="-2" relative="1" as="geometry">
                        <mxPoint x="14" y="16" as="offset"/>
                    </mxGeometry>
                </mxCell>
                <mxCell id="219" value="View" style="rounded=0;whiteSpace=wrap;html=1;" parent="1" vertex="1">
                    <mxGeometry x="240" y="260" width="80" height="244" as="geometry"/>
                </mxCell>
                <mxCell id="220" style="edgeStyle=none;html=1;exitX=1;exitY=0.25;exitDx=0;exitDy=0;entryX=0;entryY=0.2;entryDx=0;entryDy=0;entryPerimeter=0;" parent="1" source="222" target="219" edge="1">
                    <mxGeometry relative="1" as="geometry">
                        <mxPoint x="230" y="299.9999999999998" as="targetPoint"/>
                    </mxGeometry>
                </mxCell>
                <mxCell id="221" value="Interaction" style="edgeLabel;html=1;align=center;verticalAlign=middle;resizable=0;points=[];fontSize=12;" parent="220" vertex="1" connectable="0">
                    <mxGeometry x="-0.1345" y="1" relative="1" as="geometry">
                        <mxPoint x="11" y="-3" as="offset"/>
                    </mxGeometry>
                </mxCell>
                <mxCell id="222" value="&lt;svg style=&quot;font-size: 50px;&quot; stroke=&quot;currentColor&quot; fill=&quot;currentColor&quot; stroke-width=&quot;0&quot; viewBox=&quot;0 0 24 24&quot; height=&quot;1em&quot; width=&quot;1em&quot; xmlns=&quot;http://www.w3.org/2000/svg&quot;&gt;&lt;g id=&quot;User&quot; style=&quot;font-size: 50px;&quot;&gt;&lt;g style=&quot;font-size: 50px;&quot;&gt;&lt;path d=&quot;M17.438,21.937H6.562a2.5,2.5,0,0,1-2.5-2.5V18.61c0-3.969,3.561-7.2,7.938-7.2s7.938,3.229,7.938,7.2v.827A2.5,2.5,0,0,1,17.438,21.937ZM12,12.412c-3.826,0-6.938,2.78-6.938,6.2v.827a1.5,1.5,0,0,0,1.5,1.5H17.438a1.5,1.5,0,0,0,1.5-1.5V18.61C18.938,15.192,15.826,12.412,12,12.412Z&quot; style=&quot;font-size: 50px;&quot;&gt;&lt;/path&gt;&lt;path d=&quot;M12,9.911a3.924,3.924,0,1,1,3.923-3.924A3.927,3.927,0,0,1,12,9.911Zm0-6.847a2.924,2.924,0,1,0,2.923,2.923A2.926,2.926,0,0,0,12,3.064Z&quot; style=&quot;font-size: 50px;&quot;&gt;&lt;/path&gt;&lt;/g&gt;&lt;/g&gt;&lt;/svg&gt;" style="text;whiteSpace=wrap;html=1;fontSize=50;" parent="1" vertex="1">
                    <mxGeometry x="100" y="341" width="50" height="60" as="geometry"/>
                </mxCell>
                <mxCell id="223" value="User" style="text;html=1;align=center;verticalAlign=middle;resizable=0;points=[];autosize=1;strokeColor=none;fillColor=none;fontSize=12;" parent="1" vertex="1">
                    <mxGeometry x="100" y="393" width="50" height="30" as="geometry"/>
                </mxCell>
                <mxCell id="225" value="" style="endArrow=classic;html=1;entryX=0;entryY=0.5;entryDx=0;entryDy=0;exitX=1;exitY=0.164;exitDx=0;exitDy=0;exitPerimeter=0;" parent="1" edge="1">
                    <mxGeometry width="50" height="50" relative="1" as="geometry">
                        <mxPoint x="320" y="299.656" as="sourcePoint"/>
                        <mxPoint x="440" y="299.63999999999993" as="targetPoint"/>
                    </mxGeometry>
                </mxCell>
                <mxCell id="226" value="Action" style="edgeLabel;html=1;align=center;verticalAlign=middle;resizable=0;points=[];fontSize=12;" parent="225" vertex="1" connectable="0">
                    <mxGeometry x="-0.1409" relative="1" as="geometry">
                        <mxPoint x="8" as="offset"/>
                    </mxGeometry>
                </mxCell>
                <mxCell id="227" style="edgeStyle=none;html=1;exitX=0;exitY=0.5;exitDx=0;exitDy=0;entryX=1.027;entryY=0.8;entryDx=0;entryDy=0;entryPerimeter=0;" parent="1" edge="1">
                    <mxGeometry relative="1" as="geometry">
                        <mxPoint x="437.84000000000003" y="463.64" as="sourcePoint"/>
                        <mxPoint x="320.0000000000001" y="463.64" as="targetPoint"/>
                    </mxGeometry>
                </mxCell>
                <mxCell id="228" value="View State" style="edgeLabel;html=1;align=center;verticalAlign=middle;resizable=0;points=[];fontSize=12;" parent="227" vertex="1" connectable="0">
                    <mxGeometry x="0.1433" y="1" relative="1" as="geometry">
                        <mxPoint x="10" y="-1" as="offset"/>
                    </mxGeometry>
                </mxCell>
                <mxCell id="237" value="Event" style="text;html=1;strokeColor=none;fillColor=none;align=left;verticalAlign=middle;whiteSpace=wrap;rounded=0;dashed=1;dashPattern=1 1;" parent="1" vertex="1">
                    <mxGeometry x="145" y="575" width="37" height="20" as="geometry"/>
                </mxCell>
                <mxCell id="239" value="State" style="text;html=1;strokeColor=none;fillColor=none;align=left;verticalAlign=middle;whiteSpace=wrap;rounded=0;dashed=1;dashPattern=1 1;" parent="1" vertex="1">
                    <mxGeometry x="145" y="605" width="37" height="20" as="geometry"/>
                </mxCell>
                <mxCell id="240" value="Types of data" style="text;html=1;strokeColor=none;fillColor=none;align=left;verticalAlign=middle;whiteSpace=wrap;rounded=0;fontSize=14;" parent="1" vertex="1">
                    <mxGeometry x="110" y="540" width="90" height="20" as="geometry"/>
                </mxCell>
                <mxCell id="241" value="" style="endArrow=classic;html=1;" parent="1" edge="1">
                    <mxGeometry width="50" height="50" relative="1" as="geometry">
                        <mxPoint x="112" y="584.82" as="sourcePoint"/>
                        <mxPoint x="132" y="585" as="targetPoint"/>
                    </mxGeometry>
                </mxCell>
                <mxCell id="242" value="" style="endArrow=none;html=1;startArrow=classic;startFill=1;endFill=0;" parent="1" edge="1">
                    <mxGeometry width="50" height="50" relative="1" as="geometry">
                        <mxPoint x="112" y="614.82" as="sourcePoint"/>
                        <mxPoint x="132" y="615" as="targetPoint"/>
                    </mxGeometry>
                </mxCell>
                <mxCell id="243" value="State Store" style="rounded=0;whiteSpace=wrap;html=1;" parent="1" vertex="1">
                    <mxGeometry x="840" y="260" width="80" height="244" as="geometry"/>
                </mxCell>
                <mxCell id="244" value="" style="endArrow=classic;html=1;entryX=0;entryY=0.5;entryDx=0;entryDy=0;exitX=1;exitY=0.164;exitDx=0;exitDy=0;exitPerimeter=0;" parent="1" edge="1">
                    <mxGeometry width="50" height="50" relative="1" as="geometry">
                        <mxPoint x="720" y="299.65599999999995" as="sourcePoint"/>
                        <mxPoint x="840" y="299.6399999999999" as="targetPoint"/>
                    </mxGeometry>
                </mxCell>
                <mxCell id="245" value="Update" style="edgeLabel;html=1;align=center;verticalAlign=middle;resizable=0;points=[];fontSize=12;" parent="244" vertex="1" connectable="0">
                    <mxGeometry x="-0.1409" relative="1" as="geometry">
                        <mxPoint x="8" as="offset"/>
                    </mxGeometry>
                </mxCell>
            </root>
        </mxGraphModel>
    </diagram>
</mxfile>